<?xml version="1.0" encoding="UTF-8"?>
<svg width="64" height="64" version="1.1" viewBox="0 0 16.933 16.933" xmlns="http://www.w3.org/2000/svg" xmlns:xlink="http://www.w3.org/1999/xlink">
 <defs>
  <radialGradient id="b" cx="-136.99" cy="198.65" r="38.5" gradientTransform="matrix(.057085 0 0 .047943 16.286 -.90856)" gradientUnits="userSpaceOnUse">
   <stop stop-color="#2561db" stop-opacity=".94118" offset="0"/>
   <stop stop-color="#0d0d0d" offset="1"/>
  </radialGradient>
  <filter id="k" x="-.23258" y="-.24791" width="1.4652" height="1.4958" color-interpolation-filters="sRGB">
   <feGaussianBlur stdDeviation="1.0607186"/>
  </filter>
  <filter id="j" x="-.011629" y="-.012396" width="1.0233" height="1.0248" color-interpolation-filters="sRGB">
   <feGaussianBlur stdDeviation="0.030455491"/>
  </filter>
  <filter id="a" x="-.062444" y="-.06656" width="1.1249" height="1.1331" color-interpolation-filters="sRGB">
   <feGaussianBlur stdDeviation="0.085527836"/>
  </filter>
  <filter id="i" x="-.055239" y="-.06566" width="1.1105" height="1.1313" color-interpolation-filters="sRGB">
   <feGaussianBlur stdDeviation="0.7624247"/>
  </filter>
  <filter id="h" x="-.23258" y="-.24791" width="1.4652" height="1.4958" color-interpolation-filters="sRGB">
   <feGaussianBlur stdDeviation="0.51209235"/>
  </filter>
  <filter id="g" x="-.058145" y="-.061978" width="1.1163" height="1.124" color-interpolation-filters="sRGB">
   <feGaussianBlur stdDeviation="0.12802309"/>
  </filter>
  <filter id="f" x="-.19628" y="-.30877" width="1.3926" height="1.6175" color-interpolation-filters="sRGB">
   <feGaussianBlur stdDeviation="2.9878037"/>
  </filter>
  <filter id="n" x="-.10978" y="-.12999" width="1.2196" height="1.26" color-interpolation-filters="sRGB">
   <feGaussianBlur stdDeviation="0.15227829"/>
  </filter>
  <filter id="m" x="-.18987" y="-.24323" width="1.3797" height="1.4865" color-interpolation-filters="sRGB">
   <feGaussianBlur stdDeviation="0.15227829"/>
  </filter>
  <linearGradient id="e" x1="8.4667" x2="8.4667" y1="280.6" y2="296.47" gradientTransform="matrix(.37645 0 0 .37645 8.9831 -96.719)" gradientUnits="userSpaceOnUse">
   <stop stop-color="#f9f9f9" offset="0"/>
   <stop stop-color="#d7d7d7" offset="1"/>
  </linearGradient>
  <linearGradient id="d" x1="8.4667" x2="8.4667" y1="282.18" y2="294.88" gradientTransform="matrix(.37199 0 0 .37199 9.0211 -95.424)" gradientUnits="userSpaceOnUse">
   <stop stop-color="#aaa" offset="0"/>
   <stop stop-color="#828282" offset="1"/>
  </linearGradient>
  <linearGradient id="c" x1="8.4667" x2="8.4667" y1="283.24" y2="293.82" gradientTransform="matrix(.37199 0 0 .37199 9.0211 -95.424)" gradientUnits="userSpaceOnUse">
   <stop offset="0"/>
   <stop stop-color="#121212" offset="1"/>
  </linearGradient>
  <linearGradient id="linearGradient957" x1="6.87" x2="6.87" y1="15.131" y2="1.8216" gradientUnits="userSpaceOnUse">
   <stop stop-color="#f3f2f2" offset="0"/>
   <stop stop-color="#fff" offset="1"/>
  </linearGradient>
  <linearGradient id="linearGradient1021" x1="7.2399" x2="9.6898" y1="3.9826" y2="1.6101" gradientUnits="userSpaceOnUse">
   <stop stop-color="#ee17f5" offset="0"/>
   <stop stop-color="#aa26f0" offset="1"/>
  </linearGradient>
  <filter id="filter1309" x="-.24778" y="-.24778" width="1.4956" height="1.4956" color-interpolation-filters="sRGB">
   <feGaussianBlur stdDeviation="0.95626478"/>
  </filter>
 </defs>
 <g shape-rendering="auto">
  <path d="m4.3693 0.52916c-2.1142 0-3.8402 1.7835-3.8402 3.9682v8.4675c0 2.1846 1.726 3.9682 3.8402 3.9682h8.1944c2.1142 0 3.8402-1.7835 3.8402-3.9682v-8.4675c0-2.1846-1.726-3.9682-3.8402-3.9682zm0.25704 0.52089h7.6808c1.8443 0 3.3291 1.5342 3.3291 3.44v7.9368c0 1.9058-1.4847 3.44-3.3291 3.44h-7.6808c-1.8443 0-3.3291-1.5342-3.3291-3.44v-7.9368c0-1.9058 1.4847-3.44 3.3291-3.44z" color="#000000" color-rendering="auto" dominant-baseline="auto" image-rendering="auto" opacity=".01" solid-color="#000000" stop-color="#000000" style="font-feature-settings:normal;font-variant-alternates:normal;font-variant-caps:normal;font-variant-east-asian:normal;font-variant-ligatures:normal;font-variant-numeric:normal;font-variant-position:normal;font-variation-settings:normal;inline-size:0;isolation:auto;mix-blend-mode:normal;shape-margin:0;shape-padding:0;text-decoration-color:#000000;text-decoration-line:none;text-decoration-style:solid;text-indent:0;text-orientation:mixed;text-transform:none;white-space:normal"/>
  <path d="m4.3587 0.79373c-1.9668 0-3.5639 1.6528-3.5639 3.6876v8.4996c0 2.0348 1.5971 3.6876 3.5639 3.6876h8.2162c1.9668 0 3.5644-1.6528 3.5644-3.6876v-8.4996c0-2.0348-1.5976-3.6876-3.5644-3.6876zm0.27222 0.25631h7.6718c1.8422 0 3.3251 1.5342 3.3251 3.44v7.9368c0 1.9058-1.483 3.44-3.3251 3.44h-7.6718c-1.8422 0-3.3251-1.5342-3.3251-3.44v-7.9368c0-1.9058 1.483-3.44 3.3251-3.44z" color="#000000" color-rendering="auto" dominant-baseline="auto" image-rendering="auto" opacity=".01" solid-color="#000000" stop-color="#000000" style="font-feature-settings:normal;font-variant-alternates:normal;font-variant-caps:normal;font-variant-east-asian:normal;font-variant-ligatures:normal;font-variant-numeric:normal;font-variant-position:normal;font-variation-settings:normal;inline-size:0;isolation:auto;mix-blend-mode:normal;shape-margin:0;shape-padding:0;text-decoration-color:#000000;text-decoration-line:none;text-decoration-style:solid;text-indent:0;text-orientation:mixed;text-transform:none;white-space:normal"/>
  <path d="m4.3097 1.0583c-1.8657 0-3.3751 1.5383-3.3751 3.439v8.4675c0 1.9007 1.57 3.439 3.4357 3.439h8.1996c1.8657 0 3.4274-1.5383 3.4274-3.439v-8.4675c0-1.9007-1.51-3.439-3.3756-3.439h-0.09688c1.794 0.086515 3.2138 1.5819 3.2138 3.4318v7.9368c0 1.9058-1.5059 3.44-3.3766 3.44h-7.7905c-1.8707 0-3.3766-1.5342-3.3766-3.44v-7.9368c0-1.8498 1.4199-3.3451 3.2138-3.4318z" color="#000000" color-rendering="auto" dominant-baseline="auto" image-rendering="auto" opacity=".03" solid-color="#000000" stop-color="#000000" style="font-feature-settings:normal;font-variant-alternates:normal;font-variant-caps:normal;font-variant-east-asian:normal;font-variant-ligatures:normal;font-variant-numeric:normal;font-variant-position:normal;font-variation-settings:normal;inline-size:0;isolation:auto;mix-blend-mode:normal;shape-margin:0;shape-padding:0;text-decoration-color:#000000;text-decoration-line:none;text-decoration-style:solid;text-indent:0;text-orientation:mixed;text-transform:none;white-space:normal"/>
  <path transform="scale(.26458)" d="m4 46.969v2.0312c0 6.6479 5.8957 12 12.544 12h30.961c6.6479 0 12.495-5.3521 12.495-12v-1.9922c-0.02117 7.1849-5.81 12.963-13 12.963h-29.998c-7.2032 0-13.002-5.7987-13.002-13.002z" color="#000000" color-rendering="auto" dominant-baseline="auto" image-rendering="auto" opacity=".03" solid-color="#000000" stop-color="#000000" style="font-feature-settings:normal;font-variant-alternates:normal;font-variant-caps:normal;font-variant-east-asian:normal;font-variant-ligatures:normal;font-variant-numeric:normal;font-variant-position:normal;font-variation-settings:normal;inline-size:0;isolation:auto;mix-blend-mode:normal;shape-margin:0;shape-padding:0;text-decoration-color:#000000;text-decoration-line:none;text-decoration-style:solid;text-indent:0;text-orientation:mixed;text-transform:none;white-space:normal"/>
  <path d="m1.0583 11.906v0.59234c0 1.9386 1.5729 3.4993 3.3318 3.4993h8.1603c1.7589 0 3.3243-1.5608 3.3243-3.4993v-0.58095c-0.0056 2.0952-1.5372 3.7801-3.4395 3.7801h-7.9368c-1.9058 0-3.44-1.691-3.44-3.7915z" color="#000000" color-rendering="auto" dominant-baseline="auto" image-rendering="auto" opacity=".05" solid-color="#000000" stop-color="#000000" style="font-feature-settings:normal;font-variant-alternates:normal;font-variant-caps:normal;font-variant-east-asian:normal;font-variant-ligatures:normal;font-variant-numeric:normal;font-variant-position:normal;font-variation-settings:normal;inline-size:0;isolation:auto;mix-blend-mode:normal;shape-margin:0;shape-padding:0;text-decoration-color:#000000;text-decoration-line:none;text-decoration-style:solid;text-indent:0;text-orientation:mixed;text-transform:none;white-space:normal"/>
 </g>
 <rect x="1.0583" y="1.05" width="14.817" height="14.817" rx="3.4401" ry="3.4401" fill="url(#linearGradient957)"/>
 <path d="m8.6371 4.867a4.6312 4.6312 0 0 0-4.6167 4.6312 4.6312 4.6312 0 0 0 4.6312 4.6312 4.6312 4.6312 0 0 0 4.6312-4.6312 4.6312 4.6312 0 0 0-4.6312-4.6312 4.6312 4.6312 0 0 0-0.014469 0z" fill="#969696" filter="url(#filter1309)" stroke-width=".83353"/>
 <rect x="6.5993" y="1.05" width="3.7349" height="4.7755" ry="0" fill="url(#linearGradient1021)" stop-color="#000000" stroke-width="1.7048"/>
 <g>
  <g transform="matrix(1.5628 0 0 1.5628 -10.554 -9.9927)" stroke-width=".53336">
   <circle cx="12.171" cy="11.906" r="2.9634" fill="url(#e)"/>
   <circle cx="12.171" cy="11.906" r="2.3621" fill="url(#d)"/>
   <circle cx="12.171" cy="11.906" r="1.9685" fill="url(#c)"/>
  </g>
  <circle cx="8.467" cy="8.6138" r="2.3928" fill="url(#b)" stroke="#0d224d" stroke-linecap="round" stroke-linejoin="round" stroke-width=".19552"/>
  <g transform="matrix(.58134 0 0 .58134 3.5444 3.6957)" stroke-width="1.4338">
   <path d="m4.9448 6.47 1.4646 0.81043s0.45771-0.47747 0.77192-0.68614c0.34816-0.2312 1.1047-0.41587 1.0925-0.36047l-0.24082-1.7621s-1.6213-0.1607-3.0882 1.9983z" fill="#4678cc" filter="url(#n)" opacity=".8"/>
   <path d="m4.7877 6.73 1.565 0.69539s-0.088292 0.20162-0.12307 0.42093c-0.031791 0.20052 0.00444 0.38623 0.00444 0.38623l-1.8062-0.0183s0.072193-1.0359 0.35991-1.4842z" fill="#4678cc" filter="url(#m)" opacity=".8"/>
   <g transform="translate(0,-280.07)" fill="#fff">
    <ellipse transform="matrix(.15683 -.13591 .13591 .15683 36.278 248.68)" cx="-228.33" cy="44.944" rx="3.083" ry="1.9028" fill-opacity=".3" filter="url(#g)"/>
    <ellipse transform="matrix(.10291 -.08918 .08918 .10291 26.112 262.03)" cx="-228.1" cy="51.166" rx="1.9178" ry="1.1837" fill-opacity=".3" filter="url(#a)"/>
    <ellipse transform="matrix(.11873 -.079425 .079425 .11873 27.406 259.75)" cx="-222.03" cy="111.72" rx="18.419" ry="11.368" filter="url(#i)" opacity=".2"/>
    <ellipse transform="matrix(.10291 -.08918 .08918 .10291 26.764 261.46)" cx="-235.29" cy="75.046" rx="3.667" ry="2.2633" fill-opacity=".3" filter="url(#j)"/>
    <ellipse transform="matrix(.12523 -.10853 .10853 .12523 29.918 254.7)" cx="-234.21" cy="88.759" rx="6.3859" ry="3.9413" filter="url(#k)"/>
   </g>
   <g transform="translate(0,-280.07)">
    <ellipse transform="matrix(.14046 -.082814 .082814 .14046 31.651 256.02)" cx="-222.03" cy="111.72" rx="18.419" ry="11.368" fill="#4397ee" filter="url(#f)" opacity=".45"/>
    <ellipse transform="matrix(.081325 -.070476 .070476 .081325 22.059 267.13)" cx="-228.33" cy="44.944" rx="3.083" ry="1.9028" fill="#fff" fill-opacity=".85417" filter="url(#h)"/>
    <ellipse transform="matrix(.069156 -.05993 .05993 .069156 20.8 271.49)" cx="-228.1" cy="51.166" rx="1.9178" ry="1.1837" fill="#fff" fill-opacity=".3" filter="url(#a)"/>
   </g>
  </g>
 </g>
</svg>
