<?xml version="1.0" encoding="UTF-8"?>
<svg width="64" height="64" version="1.1" xmlns="http://www.w3.org/2000/svg" xmlns:xlink="http://www.w3.org/1999/xlink">
 <defs>
  <linearGradient id="linearGradient896" x1="32" x2="32" y1="4.4929" y2="62" gradientUnits="userSpaceOnUse">
   <stop stop-color="#a10023" offset="0"/>
   <stop stop-color="#b2008e" offset="1"/>
  </linearGradient>
  <linearGradient id="linearGradient1011" x1="23.255" x2="23.255" y1="40.578" y2="7.6408" gradientUnits="userSpaceOnUse" xlink:href="#linearGradient896"/>
  <linearGradient id="linearGradient932" x1="379.24" x2="374.24" y1="546.85" y2="546.85" gradientTransform="matrix(2.1429,0,0,2.1429,-769.68,-1134.5)" gradientUnits="userSpaceOnUse">
   <stop stop-color="#f6f5f4" offset="0"/>
   <stop stop-color="#fff" offset=".6"/>
   <stop stop-color="#dddbd8" offset="1"/>
  </linearGradient>
  <linearGradient id="b-3" x1="399.57" x2="399.57" y1="545.8" y2="517.8" gradientTransform="matrix(2.1429,0,0,2.1429,-826.37,-1107.5)" gradientUnits="userSpaceOnUse">
   <stop stop-color="#3889e9" offset="0"/>
   <stop stop-color="#5ea5fb" offset="1"/>
  </linearGradient>
  <linearGradient id="linearGradient953" x1="376.35" x2="374.24" y1="546.85" y2="546.85" gradientTransform="matrix(-2.1429,0,0,2.1429,833.67,-1134.5)" gradientUnits="userSpaceOnUse">
   <stop stop-opacity="0" offset="0"/>
   <stop stop-opacity="0" offset=".6"/>
   <stop stop-opacity=".05" offset="1"/>
  </linearGradient>
  <linearGradient id="linearGradient1003" x1="32.002" x2="32.002" y1="57.171" y2="7.0013" gradientUnits="userSpaceOnUse" xlink:href="#linearGradient896"/>
  <linearGradient id="linearGradient1293" x1="7.9373" x2="7.9373" y1="15.081" y2="1.852" gradientTransform="matrix(3.3743 0 0 3.3743 3.4312 3.4569)" gradientUnits="userSpaceOnUse">
   <stop stop-color="#f1efeb" offset="0"/>
   <stop stop-color="#fff" offset="1"/>
  </linearGradient>
  <linearGradient id="linearGradient1146" x1="18" x2="18" y1="52" y2="12" gradientUnits="userSpaceOnUse" xlink:href="#linearGradient896">
   <stop stop-color="#a90056" offset="0"/>
   <stop stop-color="#b2008e" offset="1"/>
  </linearGradient>
 </defs>
 <circle cx="32.02" cy="32.044" r="0" fill="url(#b-3)" stroke-width="1.5715"/>
 <g transform="matrix(3.7796,0,0,3.7796,-6e-8,2.2574e-6)" shape-rendering="auto">
  <path d="m4.3693 0.52916c-2.1142 0-3.8402 1.7835-3.8402 3.9682v8.4675c0 2.1846 1.726 3.9682 3.8402 3.9682h8.1944c2.1142 0 3.8402-1.7835 3.8402-3.9682v-8.4675c0-2.1846-1.726-3.9682-3.8402-3.9682zm0.25704 0.52089h7.6808c1.8443 0 3.3291 1.5342 3.3291 3.44v7.9368c0 1.9058-1.4847 3.44-3.3291 3.44h-7.6808c-1.8443 0-3.3291-1.5342-3.3291-3.44v-7.9368c0-1.9058 1.4847-3.44 3.3291-3.44z" color="#000000" color-rendering="auto" dominant-baseline="auto" image-rendering="auto" opacity=".01" solid-color="#000000" stop-color="#000000" style="font-feature-settings:normal;font-variant-alternates:normal;font-variant-caps:normal;font-variant-east-asian:normal;font-variant-ligatures:normal;font-variant-numeric:normal;font-variant-position:normal;font-variation-settings:normal;inline-size:0;isolation:auto;mix-blend-mode:normal;shape-margin:0;shape-padding:0;text-decoration-color:#000000;text-decoration-line:none;text-decoration-style:solid;text-indent:0;text-orientation:mixed;text-transform:none;white-space:normal"/>
  <path d="m4.3587 0.79373c-1.9668 0-3.5639 1.6528-3.5639 3.6876v8.4996c0 2.0348 1.5971 3.6876 3.5639 3.6876h8.2162c1.9668 0 3.5644-1.6528 3.5644-3.6876v-8.4996c0-2.0348-1.5976-3.6876-3.5644-3.6876zm0.27222 0.25631h7.6718c1.8422 0 3.3251 1.5342 3.3251 3.44v7.9368c0 1.9058-1.483 3.44-3.3251 3.44h-7.6718c-1.8422 0-3.3251-1.5342-3.3251-3.44v-7.9368c0-1.9058 1.483-3.44 3.3251-3.44z" color="#000000" color-rendering="auto" dominant-baseline="auto" image-rendering="auto" opacity=".01" solid-color="#000000" stop-color="#000000" style="font-feature-settings:normal;font-variant-alternates:normal;font-variant-caps:normal;font-variant-east-asian:normal;font-variant-ligatures:normal;font-variant-numeric:normal;font-variant-position:normal;font-variation-settings:normal;inline-size:0;isolation:auto;mix-blend-mode:normal;shape-margin:0;shape-padding:0;text-decoration-color:#000000;text-decoration-line:none;text-decoration-style:solid;text-indent:0;text-orientation:mixed;text-transform:none;white-space:normal"/>
  <path d="m4.3097 1.0583c-1.8657 0-3.3751 1.5383-3.3751 3.439v8.4675c0 1.9007 1.57 3.439 3.4357 3.439h8.1996c1.8657 0 3.4274-1.5383 3.4274-3.439v-8.4675c0-1.9007-1.51-3.439-3.3756-3.439h-0.09688c1.794 0.086515 3.2138 1.5819 3.2138 3.4318v7.9368c0 1.9058-1.5059 3.44-3.3766 3.44h-7.7905c-1.8707 0-3.3766-1.5342-3.3766-3.44v-7.9368c0-1.8498 1.4199-3.3451 3.2138-3.4318z" color="#000000" color-rendering="auto" dominant-baseline="auto" image-rendering="auto" opacity=".03" solid-color="#000000" stop-color="#000000" style="font-feature-settings:normal;font-variant-alternates:normal;font-variant-caps:normal;font-variant-east-asian:normal;font-variant-ligatures:normal;font-variant-numeric:normal;font-variant-position:normal;font-variation-settings:normal;inline-size:0;isolation:auto;mix-blend-mode:normal;shape-margin:0;shape-padding:0;text-decoration-color:#000000;text-decoration-line:none;text-decoration-style:solid;text-indent:0;text-orientation:mixed;text-transform:none;white-space:normal"/>
  <path transform="scale(.26458)" d="m4 46.969v2.0312c0 6.6479 5.8957 12 12.544 12h30.961c6.6479 0 12.495-5.3521 12.495-12v-1.9922c-0.02117 7.1849-5.81 12.963-13 12.963h-29.998c-7.2032 0-13.002-5.7987-13.002-13.002z" color="#000000" color-rendering="auto" dominant-baseline="auto" image-rendering="auto" opacity=".03" solid-color="#000000" stop-color="#000000" style="font-feature-settings:normal;font-variant-alternates:normal;font-variant-caps:normal;font-variant-east-asian:normal;font-variant-ligatures:normal;font-variant-numeric:normal;font-variant-position:normal;font-variation-settings:normal;inline-size:0;isolation:auto;mix-blend-mode:normal;shape-margin:0;shape-padding:0;text-decoration-color:#000000;text-decoration-line:none;text-decoration-style:solid;text-indent:0;text-orientation:mixed;text-transform:none;white-space:normal"/>
  <path d="m1.0583 11.906v0.59234c0 1.9386 1.5729 3.4993 3.3318 3.4993h8.1603c1.7589 0 3.3243-1.5608 3.3243-3.4993v-0.58095c-0.0056 2.0952-1.5372 3.7801-3.4395 3.7801h-7.9368c-1.9058 0-3.44-1.691-3.44-3.7915z" color="#000000" color-rendering="auto" dominant-baseline="auto" image-rendering="auto" opacity=".05" solid-color="#000000" stop-color="#000000" style="font-feature-settings:normal;font-variant-alternates:normal;font-variant-caps:normal;font-variant-east-asian:normal;font-variant-ligatures:normal;font-variant-numeric:normal;font-variant-position:normal;font-variation-settings:normal;inline-size:0;isolation:auto;mix-blend-mode:normal;shape-margin:0;shape-padding:0;text-decoration-color:#000000;text-decoration-line:none;text-decoration-style:solid;text-indent:0;text-orientation:mixed;text-transform:none;white-space:normal"/>
 </g>
 <path d="m16.987 4c-7.2032 0-13.002 5.7987-13.002 13.002v29.998c0 7.2032 5.7987 13.002 13.002 13.002h29.998c7.2032 0 13.002-5.7987 13.002-13.002v-29.998c0-7.2032-5.7987-13.002-13.002-13.002z" fill="url(#linearGradient1003)" stroke-width="3.7796"/>
 <rect x="7.0025" y="6.9998" width="49.997" height="49.997" rx="10" ry="10" fill="url(#linearGradient1293)" stroke-width="3.3743"/>
 <path d="m17.004 6.9998c-5.5401 0-10 4.4599-10 10v29.998c0 5.5401 4.4599 10 10 10h14.998v-49.997z" fill="url(#linearGradient953)" stroke-width="3.3743"/>
 <circle cx="32.02" cy="32.044" r="30.001" fill-opacity="0" stroke-width="1.5715"/>
 <path d="m46.999 6.9998c5.5401 0 10 4.4599 10 10v29.998c0 5.5401-4.4599 10-10 10h-14.998v-49.997z" fill="url(#linearGradient932)" stroke-width="3.3743"/>
 <g transform="matrix(3.7796,0,0,3.7796,-6e-8,2.2574e-6)" stroke-width=".26458">
  <rect x="9.5248" y="3.7041" width="4.4978" height=".13229" rx="0" ry="0" opacity=".1"/>
  <rect x="9.5248" y="4.7624" width="4.4978" height=".13229" rx="0" ry="0" opacity=".1"/>
  <rect x="9.5248" y="5.8207" width="4.4978" height=".13229" rx="0" ry="0" opacity=".1"/>
  <rect x="9.5248" y="6.879" width="4.4978" height=".13229" rx="0" ry="0" opacity=".1"/>
  <rect x="9.5248" y="7.9373" width="4.4978" height=".13229" rx="0" ry="0" opacity=".1"/>
  <rect x="9.5248" y="8.9957" width="4.4978" height=".13229" rx="0" ry="0" opacity=".1"/>
 </g>
 <g transform="matrix(3.7796,0,0,3.7796,-6e-8,2.2574e-6)" stroke-linecap="round" stroke-linejoin="round">
  <g stroke="#000">
   <path d="m4.2853 2.0484h3.1749v8.9957l-1.5875-1.3229-1.5875 1.3229z" opacity=".01" stroke-width="1.0583"/>
   <path d="m4.2853 2.0484h3.1749v8.9957l-1.5875-1.3229-1.5875 1.3229z" opacity=".02" stroke-width=".79373"/>
   <path d="m4.2853 2.0484h3.1749v8.9957l-1.5875-1.3229-1.5875 1.3229z" opacity=".03" stroke-width=".52916"/>
   <path d="m4.2853 2.0484h3.1749v8.9957l-1.5875-1.3229-1.5875 1.3229z" opacity=".04" stroke-width=".26458"/>
  </g>
  <path d="m4.2853 2.0484h3.1749v8.9957l-1.5875-1.3229-1.5875 1.3229z" opacity=".05" stroke-width=".39687"/>
 </g>
 <path d="m16 4.7351h12v36.265l-6.0001-5-6.0001 5z" fill="url(#linearGradient1011)" stroke-linecap="round" stroke-linejoin="round" stroke-width="1.5"/>
 <g transform="matrix(.86432 .86432 -.86432 .86432 55.316 -.72471)">
  <path d="m18.901 11v15.994l-0.01367 0.01367v25.519h1.8867v-14.135l3.2772 3.2772c0.52722 0.5272 1.4709 0.82062 2.4921-0.17578l-5.7558-5.7558v-7.9627l5.7421-5.7401c-1.0212-0.9964-1.965-0.70493-2.4921-0.17773l-3.2499 3.2499v-14.107h-1.8867z" color="#000000" color-rendering="auto" dominant-baseline="auto" fill="#333" image-rendering="auto" shape-rendering="auto" solid-color="#000000" stroke-width="2.119" style="font-feature-settings:normal;font-variant-alternates:normal;font-variant-caps:normal;font-variant-ligatures:normal;font-variant-numeric:normal;font-variant-position:normal;isolation:auto;mix-blend-mode:normal;shape-padding:0;text-decoration-color:#000000;text-decoration-line:none;text-decoration-style:solid;text-indent:0;text-orientation:mixed;text-transform:none;white-space:normal"/>
  <rect transform="rotate(90)" x="34.123" y="-24.08" width="15.101" height="6.6067" rx="1.071" ry="1.071" fill="#fff" fill-opacity=".44094" stroke-width=".24999" style="paint-order:normal"/>
  <rect transform="rotate(90)" x="14.303" y="-24.08" width="15.101" height="6.6067" rx="1.071" ry="1.071" fill="#fff" fill-opacity=".44094" stroke-width=".24999" style="paint-order:normal"/>
  <path d="m17.002 11c-0.50183 0-0.94336 0.39005-0.94336 0.94336v3.8828c-0.01236 0.09643-0.0293 0.19135-0.0293 0.29102v11.473c0 0.09966 0.01694 0.19459 0.0293 0.29102v0.10742s5.2e-4 0.72938 0.45312 1.2812c-0.43482 0.24986-0.80729 0.613-1.0605 1.0723-0.48642 0.88212-0.48642 1.9616 0 2.8438 0.25472 0.46194 0.63023 0.82627 1.0684 1.0762-0.26165 0.27926-0.46094 0.67515-0.46094 1.2773v0.10742c-0.01236 0.09643-0.0293 0.19135-0.0293 0.29102v11.473c0 0.09966 0.01694 0.19459 0.0293 0.29102v3.8828c0 0.41528 0.42677 0.94336 0.94336 0.94336h3.7754s-0.95289 4.12e-4 -0.94336-0.94336v-1.8594h2.4316c1.2736 0 2.3145-1.0409 2.3145-2.3145v-11.473c0-1.2736-1.0409-2.3145-2.3145-2.3145h-3.9219c-0.09966 0-0.19459 0.01694-0.29102 0.0293h-0.03711a0.50005 0.50005 0 0 0-0.17578-0.0293c-0.61895 6e-6 -1.195-0.34389-1.5137-0.92188-0.31871-0.57798-0.31871-1.297 0-1.875 0.31872-0.57798 0.89472-0.92188 1.5137-0.92188a0.50005 0.50005 0 0 0 0.16992-0.02734h0.0625c0.09018 0.01078 0.17851 0.02734 0.27148 0.02734h3.9219c1.2736 0 2.3145-1.0409 2.3145-2.3145v-11.473c0-1.2736-1.0409-2.3145-2.3145-2.3145h-2.4316v-1.8594c0-0.94382 0.94336-0.94336 0.94336-0.94336h-3.7754zm1.3418 3.8027h3.9219c0.73688 0 1.3145 0.57757 1.3145 1.3145v11.473c0 0.73688-0.57758 1.3145-1.3145 1.3145h-3.9219c-0.0706 0-0.13777-0.0093-0.20508-0.01953-0.11352-0.05962-0.18555-0.17191-0.18555-0.32227v-13.418c0-0.15036 0.07202-0.26265 0.18555-0.32226 0.06731-0.01023 0.13448-0.01953 0.20508-0.01953zm0 19.82h3.9219c0.73688 0 1.3145 0.57758 1.3145 1.3145v11.473c0 0.73688-0.57758 1.3145-1.3145 1.3145h-3.9219c-0.07393 0-0.14454-0.0083-0.21484-0.01953-0.11265-0.05985-0.18359-0.17256-0.18359-0.32227v-13.418c0-0.18178 0.1172-0.28121 0.27539-0.33008 0.04123-0.0037 0.08069-0.01172 0.12305-0.01172z" color="#000000" color-rendering="auto" dominant-baseline="auto" fill="url(#linearGradient1146)" image-rendering="auto" shape-rendering="auto" solid-color="#000000" style="font-feature-settings:normal;font-variant-alternates:normal;font-variant-caps:normal;font-variant-ligatures:normal;font-variant-numeric:normal;font-variant-position:normal;isolation:auto;mix-blend-mode:normal;paint-order:normal;shape-padding:0;text-decoration-color:#000000;text-decoration-line:none;text-decoration-style:solid;text-indent:0;text-orientation:mixed;text-transform:none;white-space:normal"/>
 </g>
</svg>
