<?xml version="1.0" encoding="UTF-8"?>
<svg width="64" height="64" version="1.1" xmlns="http://www.w3.org/2000/svg" xmlns:xlink="http://www.w3.org/1999/xlink">
 <defs>
  <filter id="filter990" x="-.33308" y="-.58286" width="1.6662" height="2.1657" color-interpolation-filters="sRGB">
   <feGaussianBlur stdDeviation="4.8572221"/>
  </filter>
  <linearGradient id="linearGradient1000" x1="32.615" x2="32.652" y1="22.275" y2="41.923" gradientTransform="matrix(1.1138 0 0 1.1138 -3.6976 -2.551)" gradientUnits="userSpaceOnUse">
   <stop stop-color="#fff" offset="0"/>
   <stop stop-color="#dedede" offset=".84258"/>
   <stop stop-color="#a8fbff" offset="1"/>
  </linearGradient>
  <linearGradient id="linearGradient1805" x1="7.9051" x2="7.9373" y1="15.46" y2="1.852" gradientTransform="scale(3.7796)" gradientUnits="userSpaceOnUse">
   <stop stop-color="#1269e1" offset="0"/>
   <stop stop-color="#4aa9ea" offset="1"/>
  </linearGradient>
 </defs>
 <g transform="scale(3.7796)" shape-rendering="auto">
  <path d="m4.3693 0.52916c-2.1142 0-3.8402 1.7835-3.8402 3.9682v8.4675c0 2.1846 1.726 3.9682 3.8402 3.9682h8.1944c2.1142 0 3.8402-1.7835 3.8402-3.9682v-8.4675c0-2.1846-1.726-3.9682-3.8402-3.9682zm0.25704 0.52089h7.6808c1.8443 0 3.3291 1.5342 3.3291 3.44v7.9368c0 1.9058-1.4847 3.44-3.3291 3.44h-7.6808c-1.8443 0-3.3291-1.5342-3.3291-3.44v-7.9368c0-1.9058 1.4847-3.44 3.3291-3.44z" color="#000000" color-rendering="auto" dominant-baseline="auto" image-rendering="auto" opacity=".01" solid-color="#000000" stop-color="#000000" style="font-feature-settings:normal;font-variant-alternates:normal;font-variant-caps:normal;font-variant-east-asian:normal;font-variant-ligatures:normal;font-variant-numeric:normal;font-variant-position:normal;font-variation-settings:normal;inline-size:0;isolation:auto;mix-blend-mode:normal;shape-margin:0;shape-padding:0;text-decoration-color:#000000;text-decoration-line:none;text-decoration-style:solid;text-indent:0;text-orientation:mixed;text-transform:none;white-space:normal"/>
  <path d="m4.3587 0.79373c-1.9668 0-3.5639 1.6528-3.5639 3.6876v8.4996c0 2.0348 1.5971 3.6876 3.5639 3.6876h8.2162c1.9668 0 3.5644-1.6528 3.5644-3.6876v-8.4996c0-2.0348-1.5976-3.6876-3.5644-3.6876zm0.27222 0.25631h7.6718c1.8422 0 3.3251 1.5342 3.3251 3.44v7.9368c0 1.9058-1.483 3.44-3.3251 3.44h-7.6718c-1.8422 0-3.3251-1.5342-3.3251-3.44v-7.9368c0-1.9058 1.483-3.44 3.3251-3.44z" color="#000000" color-rendering="auto" dominant-baseline="auto" image-rendering="auto" opacity=".01" solid-color="#000000" stop-color="#000000" style="font-feature-settings:normal;font-variant-alternates:normal;font-variant-caps:normal;font-variant-east-asian:normal;font-variant-ligatures:normal;font-variant-numeric:normal;font-variant-position:normal;font-variation-settings:normal;inline-size:0;isolation:auto;mix-blend-mode:normal;shape-margin:0;shape-padding:0;text-decoration-color:#000000;text-decoration-line:none;text-decoration-style:solid;text-indent:0;text-orientation:mixed;text-transform:none;white-space:normal"/>
  <path d="m4.3097 1.0583c-1.8657 0-3.3751 1.5383-3.3751 3.439v8.4675c0 1.9007 1.57 3.439 3.4357 3.439h8.1996c1.8657 0 3.4274-1.5383 3.4274-3.439v-8.4675c0-1.9007-1.51-3.439-3.3756-3.439h-0.09688c1.794 0.086515 3.2138 1.5819 3.2138 3.4318v7.9368c0 1.9058-1.5059 3.44-3.3766 3.44h-7.7905c-1.8707 0-3.3766-1.5342-3.3766-3.44v-7.9368c0-1.8498 1.4199-3.3451 3.2138-3.4318z" color="#000000" color-rendering="auto" dominant-baseline="auto" image-rendering="auto" opacity=".03" solid-color="#000000" stop-color="#000000" style="font-feature-settings:normal;font-variant-alternates:normal;font-variant-caps:normal;font-variant-east-asian:normal;font-variant-ligatures:normal;font-variant-numeric:normal;font-variant-position:normal;font-variation-settings:normal;inline-size:0;isolation:auto;mix-blend-mode:normal;shape-margin:0;shape-padding:0;text-decoration-color:#000000;text-decoration-line:none;text-decoration-style:solid;text-indent:0;text-orientation:mixed;text-transform:none;white-space:normal"/>
  <path transform="scale(.26458)" d="m4 46.969v2.0312c0 6.6479 5.8957 12 12.544 12h30.961c6.6479 0 12.495-5.3521 12.495-12v-1.9922c-0.02117 7.1849-5.81 12.963-13 12.963h-29.998c-7.2032 0-13.002-5.7987-13.002-13.002z" color="#000000" color-rendering="auto" dominant-baseline="auto" image-rendering="auto" opacity=".03" solid-color="#000000" stop-color="#000000" style="font-feature-settings:normal;font-variant-alternates:normal;font-variant-caps:normal;font-variant-east-asian:normal;font-variant-ligatures:normal;font-variant-numeric:normal;font-variant-position:normal;font-variation-settings:normal;inline-size:0;isolation:auto;mix-blend-mode:normal;shape-margin:0;shape-padding:0;text-decoration-color:#000000;text-decoration-line:none;text-decoration-style:solid;text-indent:0;text-orientation:mixed;text-transform:none;white-space:normal"/>
  <path d="m1.0583 11.906v0.59234c0 1.9386 1.5729 3.4993 3.3318 3.4993h8.1603c1.7589 0 3.3243-1.5608 3.3243-3.4993v-0.58095c-0.0056 2.0952-1.5372 3.7801-3.4395 3.7801h-7.9368c-1.9058 0-3.44-1.691-3.44-3.7915z" color="#000000" color-rendering="auto" dominant-baseline="auto" image-rendering="auto" opacity=".05" solid-color="#000000" stop-color="#000000" style="font-feature-settings:normal;font-variant-alternates:normal;font-variant-caps:normal;font-variant-east-asian:normal;font-variant-ligatures:normal;font-variant-numeric:normal;font-variant-position:normal;font-variation-settings:normal;inline-size:0;isolation:auto;mix-blend-mode:normal;shape-margin:0;shape-padding:0;text-decoration-color:#000000;text-decoration-line:none;text-decoration-style:solid;text-indent:0;text-orientation:mixed;text-transform:none;white-space:normal"/>
 </g>
 <rect x="4" y="3.9686" width="56.002" height="56.002" rx="13.002" ry="13.002" fill="url(#linearGradient1805)" stroke-width="3.7796"/>
 <path transform="matrix(1.1138 0 0 1.1138 -3.6976 -2.551)" d="m17.166 30c-1.2003 0-2.166 0.95547-2.166 2.1426v12.143c0 3.1656 2.5765 5.7148 5.7773 5.7148h18.057c1.2003 0 2.166-0.95547 2.166-2.1426v-12.143c0-3.1656-2.5765-5.7148-5.7773-5.7148h-14.445zm31.564 0.0039c-0.42486-0.03143-0.90846 0.17568-1.3691 0.63477-1.6201 1.6144-3.5196 2.9767-4.8477 4.9062-0.54689 0.7946-0.50937 1.8466-0.51367 2.8359-0.0024 0.54283 0.0028 1.0835 0 1.6191 0.0028 0.53569-0.0024 1.0763 0 1.6191 0.0043 0.98936-0.03322 2.0413 0.51367 2.8359 1.328 1.9296 3.2276 3.2918 4.8477 4.9062 0.46068 0.45908 0.94428 0.66619 1.3691 0.63477 0.70809-0.05239 1.252-0.77105 1.252-2.1035 0-2.6086 0.0382-5.2482 0-7.8926 0.0382-2.6443 0-5.284 0-7.8926 0-1.3325-0.54386-2.0511-1.252-2.1035z" fill-opacity=".38069" filter="url(#filter990)"/>
 <path d="m15.421 21.952c-1.3369 0-2.4124 1.0642-2.4124 2.3864v13.525c0 3.5258 2.8696 6.365 6.4346 6.365h20.111c1.3369 0 2.4124-1.0642 2.4124-2.3864v-13.525c0-3.5258-2.8696-6.365-6.4346-6.365h-16.088zm35.155 0.0044c-0.4732-0.03501-1.0118 0.19567-1.5249 0.70699-1.8044 1.7981-3.92 3.3154-5.3992 5.4644-0.60911 0.88501-0.56732 2.0567-0.57211 3.1586-0.0026 0.60459 0.0031 1.2068 0 1.8033 0.0031 0.59664-0.0026 1.1988 0 1.8033 0.0047 1.1019-0.037 2.2736 0.57211 3.1586 1.4791 2.1491 3.5948 3.6663 5.3992 5.4644 0.51309 0.51131 1.0517 0.74199 1.5249 0.70699 0.78865-0.05835 1.3944-0.85878 1.3944-2.3428 0-2.9054 0.04254-5.8453 0-8.7906 0.04254-2.9452 0-5.8852 0-8.7906 0-1.4841-0.60574-2.2845-1.3944-2.3428z" fill="url(#linearGradient1000)" stroke-width="1.1138"/>
</svg>
