<?xml version="1.0" encoding="UTF-8" standalone="no"?>
<svg
   xmlns:dc="http://purl.org/dc/elements/1.1/"
   xmlns:cc="http://creativecommons.org/ns#"
   xmlns:rdf="http://www.w3.org/1999/02/22-rdf-syntax-ns#"
   xmlns:svg="http://www.w3.org/2000/svg"
   xmlns="http://www.w3.org/2000/svg"
   xmlns:xlink="http://www.w3.org/1999/xlink"
   xmlns:sodipodi="http://sodipodi.sourceforge.net/DTD/sodipodi-0.dtd"
   xmlns:inkscape="http://www.inkscape.org/namespaces/inkscape"
   width="32"
   height="32"
   version="1.1"
   id="svg27"
   sodipodi:docname="goa-account-fedora.svg"
   inkscape:version="1.0.1 (3bc2e813f5, 2020-09-07)">
  <metadata
     id="metadata31">
    <rdf:RDF>
      <cc:Work
         rdf:about="">
        <dc:format>image/svg+xml</dc:format>
        <dc:type
           rdf:resource="http://purl.org/dc/dcmitype/StillImage" />
      </cc:Work>
    </rdf:RDF>
  </metadata>
  <sodipodi:namedview
     pagecolor="#ffffff"
     bordercolor="#666666"
     borderopacity="1"
     objecttolerance="10"
     gridtolerance="10"
     guidetolerance="10"
     inkscape:pageopacity="0"
     inkscape:pageshadow="2"
     inkscape:window-width="1366"
     inkscape:window-height="709"
     id="namedview29"
     showgrid="false"
     inkscape:zoom="9.046875"
     inkscape:cx="11.073488"
     inkscape:cy="15.41511"
     inkscape:window-x="0"
     inkscape:window-y="27"
     inkscape:window-maximized="1"
     inkscape:current-layer="svg27" />
  <defs
     id="defs10">
    <radialGradient
       id="radialGradient5521-1"
       cx="10.255"
       cy="9.9089"
       r="12.672"
       fx="9.7252"
       gradientTransform="matrix(0 2.5253 -4.9716 0 66.264 -25.898)"
       gradientUnits="userSpaceOnUse">
      <stop
         stop-color="#6e95e3"
         offset="0"
         id="stop2" />
      <stop
         stop-color="#223459"
         offset="1"
         id="stop4" />
    </radialGradient>
    <filter
       id="filter975"
       x="-.048"
       y="-.048"
       width="1.096"
       height="1.096"
       color-interpolation-filters="sRGB">
      <feGaussianBlur
         stdDeviation="0.56"
         id="feGaussianBlur7" />
    </filter>
  </defs>
  <rect
     x="2"
     y="3"
     width="28"
     height="28"
     rx="5"
     ry="5"
     color="#000000"
     filter="url(#filter975)"
     opacity=".15"
     id="rect12" />
  <rect
     x="2"
     y="2"
     width="28"
     height="28"
     rx="5"
     ry="5"
     color="#000000"
     fill="url(#radialGradient5521-1)"
     id="rect14" />
  <g
     transform="matrix(0.88190336,0,0,0.88190336,1.9067875,1.3983261)"
     id="g25">
    <g
       shape-rendering="auto"
       id="g21">
      <path
         d="m 10.961,15.052 c -3.589,0 -6.5313,2.9423 -6.5313,6.5312 0,3.589 2.9423,6.5312 6.5313,6.5312 3.5891,0 6.5312,-2.9423 6.5312,-6.5312 V 15.052 Z m 0,3 h 3.5312 v 3.5312 c 0,1.9658 -1.5654,3.5312 -3.5312,3.5312 -1.9658,0 -3.5313,-1.5653 -3.5313,-3.5312 0,-1.9658 1.5655,-3.5312 3.5313,-3.5312 z"
         color="#000000"
         color-rendering="auto"
         dominant-baseline="auto"
         image-rendering="auto"
         opacity="0.35"
         solid-color="#000000"
         stop-color="#000000"
         style="font-variant-ligatures:normal;font-variant-position:normal;font-variant-caps:normal;font-variant-numeric:normal;font-variant-alternates:normal;font-variant-east-asian:normal;font-feature-settings:normal;font-variation-settings:normal;text-indent:0;text-decoration:none;text-decoration-line:none;text-decoration-style:solid;text-decoration-color:#000000;text-transform:none;text-orientation:mixed;white-space:normal;shape-padding:0;shape-margin:0;inline-size:0;isolation:auto;mix-blend-mode:normal"
         id="path16" />
      <path
         d="m 21,5 c -3.5891,0 -6.5332,2.9423 -6.5332,6.5312 v 6.5312 H 21 c 3.589,0 6.5312,-2.9423 6.5312,-6.5312 C 27.5312,7.9422 24.5889,5 21,5 Z m 0,3 c 1.9658,0 3.5312,1.5653 3.5312,3.5312 0,1.9658 -1.5655,3.5312 -3.5312,3.5312 H 17.4668 V 11.5312 C 17.4668,9.5654 19.0341,8 21,8 Z"
         color="#000000"
         color-rendering="auto"
         dominant-baseline="auto"
         image-rendering="auto"
         opacity="0.35"
         solid-color="#000000"
         stop-color="#000000"
         style="font-variant-ligatures:normal;font-variant-position:normal;font-variant-caps:normal;font-variant-numeric:normal;font-variant-alternates:normal;font-variant-east-asian:normal;font-feature-settings:normal;font-variation-settings:normal;text-indent:0;text-decoration:none;text-decoration-line:none;text-decoration-style:solid;text-decoration-color:#000000;text-transform:none;text-orientation:mixed;white-space:normal;shape-padding:0;shape-margin:0;inline-size:0;isolation:auto;mix-blend-mode:normal"
         id="path18" />
      <path
         id="b"
         d="m 17.531,15.02 v 6.5564 c 0,3.6286 -2.942,6.5706 -6.5706,6.5706 -0.55053,0 -0.94195,-0.06205 -1.4516,-0.19529 -0.74309,-0.19455 -1.3503,-0.80376 -1.3505,-1.5124 0,-0.85666 0.62173,-1.4797 1.5512,-1.4797 0.44232,0 0.6029,0.08487 1.2509,0.08487 1.913,0 3.4648,-1.5496 3.4683,-3.4626 v -3.0138 a 0.48943,0.48943 0 0 0 -0.49006,-0.4888 l -2.2784,-4.24e-4 c -0.84888,0 -1.5348,-0.67715 -1.5348,-1.5283 -4.21e-4,-0.85645 0.69303,-1.5308 1.5511,-1.5308"
         fill="#ffffff"
         shape-rendering="auto"
         stroke-width="0.10516" />
    </g>
    <use
       transform="rotate(180,15.98,16.557)"
       width="1"
       height="1"
       fill="#ffffff"
       xlink:href="#b"
       id="use23"
       x="0"
       y="0" />
  </g>
</svg>
