<?xml version="1.0" encoding="UTF-8" standalone="no"?>
<svg
   xmlns:dc="http://purl.org/dc/elements/1.1/"
   xmlns:cc="http://creativecommons.org/ns#"
   xmlns:rdf="http://www.w3.org/1999/02/22-rdf-syntax-ns#"
   xmlns:svg="http://www.w3.org/2000/svg"
   xmlns="http://www.w3.org/2000/svg"
   xmlns:sodipodi="http://sodipodi.sourceforge.net/DTD/sodipodi-0.dtd"
   xmlns:inkscape="http://www.inkscape.org/namespaces/inkscape"
   width="32"
   height="32"
   version="1.1"
   id="svg41"
   sodipodi:docname="goa-account-exchange.svg"
   inkscape:version="1.0.1 (3bc2e813f5, 2020-09-07)">
  <metadata
     id="metadata45">
    <rdf:RDF>
      <cc:Work
         rdf:about="">
        <dc:format>image/svg+xml</dc:format>
        <dc:type
           rdf:resource="http://purl.org/dc/dcmitype/StillImage" />
      </cc:Work>
    </rdf:RDF>
  </metadata>
  <sodipodi:namedview
     pagecolor="#ffffff"
     bordercolor="#666666"
     borderopacity="1"
     objecttolerance="10"
     gridtolerance="10"
     guidetolerance="10"
     inkscape:pageopacity="0"
     inkscape:pageshadow="2"
     inkscape:window-width="1366"
     inkscape:window-height="709"
     id="namedview43"
     showgrid="false"
     inkscape:zoom="12.794213"
     inkscape:cx="5.1176718"
     inkscape:cy="17.912699"
     inkscape:window-x="0"
     inkscape:window-y="27"
     inkscape:window-maximized="1"
     inkscape:current-layer="svg41" />
  <defs
     id="defs17">
    <clipPath
       id="b">
      <path
         d="m0 0h192v152h-192z"
         id="path2" />
    </clipPath>
    <clipPath
       id="c">
      <path
         d="m0 0h192v152h-192z"
         id="path5" />
    </clipPath>
    <clipPath
       id="d">
      <path
         d="m0 0h192v152h-192z"
         id="path8" />
    </clipPath>
    <clipPath
       id="e">
      <path
         d="m0 0h192v152h-192z"
         id="path11" />
    </clipPath>
    <filter
       id="filter975"
       x="-.048"
       y="-.048"
       width="1.096"
       height="1.096"
       color-interpolation-filters="sRGB">
      <feGaussianBlur
         stdDeviation="0.56"
         id="feGaussianBlur14" />
    </filter>
  </defs>
  <rect
     x="2"
     y="3"
     width="28"
     height="28"
     rx="5"
     ry="5"
     color="#000000"
     filter="url(#filter975)"
     opacity=".15"
     id="rect19" />
  <rect
     x="2"
     y="2"
     width="28"
     height="28"
     rx="5"
     ry="5"
     color="#000000"
     fill="#fff"
     id="rect21" />
  <g
     id="g879"
     transform="matrix(0.93903545,0,0,0.93903545,1.489392,0.97534848)">
    <g
       stroke-width="0.23081"
       id="g29"
       transform="matrix(0.83731079,0,0,0.83731079,2.2776676,2.6030419)">
      <path
         d="m 26.255,4 h -6.1033 a 1.7449,1.7449 0 0 0 -1.2344,0.51125 l -14.407,14.406 a 1.7465,1.7465 0 0 0 -0.51102,1.2344 v 6.1038 a 1.7449,1.7449 0 0 0 1.7454,1.7445 h 6.1038 a 1.7442,1.7442 0 0 0 1.2335,-0.51102 l 14.407,-14.406 a 1.7465,1.7465 0 0 0 0.51125,-1.2344 v -6.1038 a 1.7449,1.7449 0 0 0 -1.7456,-1.7447 z"
         fill="#28a8ea"
         id="path23" />
      <path
         d="m 26.255,28 h -6.1038 a 1.7449,1.7449 0 0 1 -1.2344,-0.51102 l -2.9175,-2.9168 v -5.452 c 0,-1.723 1.3964,-3.1206 3.1206,-3.1206 h 5.4511 l 2.9175,2.9175 a 1.7465,1.7465 0 0 1 0.51125,1.2348 v 6.1038 a 1.7449,1.7449 0 0 1 -1.7447,1.7445 z"
         fill="#0078d4"
         id="path25" />
      <path
         d="m 5.7447,4 h 6.1038 c 0.46255,0 0.90616,0.18396 1.2335,0.51125 l 2.9175,2.9168 v 5.4518 c 0,1.723 -1.3964,3.1196 -3.1194,3.1196 H 7.4283 l -2.9179,-2.9165 a 1.7465,1.7465 0 0 1 -0.51102,-1.2344 v -6.1038 a 1.7449,1.7449 0 0 1 1.7454,-1.7447 z"
         fill="#50d9ff"
         id="path27" />
    </g>
    <g
       stroke-linecap="round"
       stroke-linejoin="round"
       id="g37"
       transform="matrix(0.83731079,0,0,0.83731079,2.2776676,2.6030419)">
      <rect
         x="0.56090999"
         y="9.5085001"
         width="14"
         height="14"
         rx="3"
         ry="3"
         opacity="0.05"
         stroke="#000000"
         id="rect31" />
      <rect
         x="0.56090999"
         y="9.5085001"
         width="14"
         height="14"
         rx="3"
         ry="3"
         opacity="0.05"
         stroke-width="3"
         id="rect33" />
      <rect
         y="9"
         width="14"
         height="14"
         rx="3"
         ry="3"
         fill="#0078d4"
         stroke-width="3"
         id="rect35"
         x="0" />
    </g>
    <path
       d="M 10.494031,13.739275 H 6.9425772 v 1.690698 h 3.3741118 v 1.083983 H 6.9425772 v 1.756008 H 10.64818 V 19.34909 H 5.6295902 v -6.698486 h 4.8644408 z"
       fill="#ffffff"
       stroke-width="0.203877"
       id="path39" />
  </g>
</svg>
