<?xml version="1.0" encoding="UTF-8"?>
<svg width="64" height="64" version="1.1" viewBox="0 0 16.933 16.933" xmlns="http://www.w3.org/2000/svg" xmlns:xlink="http://www.w3.org/1999/xlink">
 <defs>
  <linearGradient id="linearGradient899" x1="7.767" x2="7.767" y1="14.687" y2="1.8818" gradientTransform="translate(17.09 .63416)" gradientUnits="userSpaceOnUse">
   <stop stop-color="#2e323e" offset="0"/>
   <stop stop-color="#505664" offset="1"/>
  </linearGradient>
  <linearGradient id="linearGradient4222" x1="24.358" x2="22.09" y1="-2.839" y2="3.458" gradientTransform="matrix(1.5492 0 0 -1.1926 -11.681 8.0425)" gradientUnits="userSpaceOnUse">
   <stop stop-color="#c42c2c" offset="0"/>
   <stop stop-color="#f36856" offset="1"/>
  </linearGradient>
  <linearGradient id="linearGradient4230" x1="38" x2="35" y1="33" y2="15" gradientTransform="translate(-1)" gradientUnits="userSpaceOnUse">
   <stop stop-color="#375a7d" offset="0"/>
   <stop stop-color="#54a3d8" offset="1"/>
  </linearGradient>
  <linearGradient id="linearGradient4241" x1="6" x2="21" y1="20.242" y2="24" gradientUnits="userSpaceOnUse">
   <stop stop-color="#abdaf9" offset="0"/>
   <stop stop-color="#7cbcec" offset="1"/>
  </linearGradient>
  <filter id="filter1124" x="-.20431" y="-.18336" width="1.4086" height="1.3667" color-interpolation-filters="sRGB">
   <feGaussianBlur stdDeviation="0.97348064"/>
  </filter>
 </defs>
 <g shape-rendering="auto">
  <path d="m4.3693 0.52916c-2.1142 0-3.8402 1.7835-3.8402 3.9682v8.4675c0 2.1846 1.726 3.9682 3.8402 3.9682h8.1944c2.1142 0 3.8402-1.7835 3.8402-3.9682v-8.4675c0-2.1846-1.726-3.9682-3.8402-3.9682zm0.25704 0.52089h7.6808c1.8443 0 3.3291 1.5342 3.3291 3.44v7.9368c0 1.9058-1.4847 3.44-3.3291 3.44h-7.6808c-1.8443 0-3.3291-1.5342-3.3291-3.44v-7.9368c0-1.9058 1.4847-3.44 3.3291-3.44z" color="#000000" color-rendering="auto" dominant-baseline="auto" image-rendering="auto" opacity=".01" solid-color="#000000" stop-color="#000000" style="font-feature-settings:normal;font-variant-alternates:normal;font-variant-caps:normal;font-variant-east-asian:normal;font-variant-ligatures:normal;font-variant-numeric:normal;font-variant-position:normal;font-variation-settings:normal;inline-size:0;isolation:auto;mix-blend-mode:normal;shape-margin:0;shape-padding:0;text-decoration-color:#000000;text-decoration-line:none;text-decoration-style:solid;text-indent:0;text-orientation:mixed;text-transform:none;white-space:normal"/>
  <path d="m4.3587 0.79373c-1.9668 0-3.5639 1.6528-3.5639 3.6876v8.4996c0 2.0348 1.5971 3.6876 3.5639 3.6876h8.2162c1.9668 0 3.5644-1.6528 3.5644-3.6876v-8.4996c0-2.0348-1.5976-3.6876-3.5644-3.6876zm0.27222 0.25631h7.6718c1.8422 0 3.3251 1.5342 3.3251 3.44v7.9368c0 1.9058-1.483 3.44-3.3251 3.44h-7.6718c-1.8422 0-3.3251-1.5342-3.3251-3.44v-7.9368c0-1.9058 1.483-3.44 3.3251-3.44z" color="#000000" color-rendering="auto" dominant-baseline="auto" image-rendering="auto" opacity=".01" solid-color="#000000" stop-color="#000000" style="font-feature-settings:normal;font-variant-alternates:normal;font-variant-caps:normal;font-variant-east-asian:normal;font-variant-ligatures:normal;font-variant-numeric:normal;font-variant-position:normal;font-variation-settings:normal;inline-size:0;isolation:auto;mix-blend-mode:normal;shape-margin:0;shape-padding:0;text-decoration-color:#000000;text-decoration-line:none;text-decoration-style:solid;text-indent:0;text-orientation:mixed;text-transform:none;white-space:normal"/>
  <path d="m4.3097 1.0583c-1.8657 0-3.3751 1.5383-3.3751 3.439v8.4675c0 1.9007 1.57 3.439 3.4357 3.439h8.1996c1.8657 0 3.4274-1.5383 3.4274-3.439v-8.4675c0-1.9007-1.51-3.439-3.3756-3.439h-0.09688c1.794 0.086515 3.2138 1.5819 3.2138 3.4318v7.9368c0 1.9058-1.5059 3.44-3.3766 3.44h-7.7905c-1.8707 0-3.3766-1.5342-3.3766-3.44v-7.9368c0-1.8498 1.4199-3.3451 3.2138-3.4318z" color="#000000" color-rendering="auto" dominant-baseline="auto" image-rendering="auto" opacity=".03" solid-color="#000000" stop-color="#000000" style="font-feature-settings:normal;font-variant-alternates:normal;font-variant-caps:normal;font-variant-east-asian:normal;font-variant-ligatures:normal;font-variant-numeric:normal;font-variant-position:normal;font-variation-settings:normal;inline-size:0;isolation:auto;mix-blend-mode:normal;shape-margin:0;shape-padding:0;text-decoration-color:#000000;text-decoration-line:none;text-decoration-style:solid;text-indent:0;text-orientation:mixed;text-transform:none;white-space:normal"/>
  <path transform="scale(.26458)" d="m4 46.969v2.0312c0 6.6479 5.8957 12 12.544 12h30.961c6.6479 0 12.495-5.3521 12.495-12v-1.9922c-0.02117 7.1849-5.81 12.963-13 12.963h-29.998c-7.2032 0-13.002-5.7987-13.002-13.002z" color="#000000" color-rendering="auto" dominant-baseline="auto" image-rendering="auto" opacity=".03" solid-color="#000000" stop-color="#000000" style="font-feature-settings:normal;font-variant-alternates:normal;font-variant-caps:normal;font-variant-east-asian:normal;font-variant-ligatures:normal;font-variant-numeric:normal;font-variant-position:normal;font-variation-settings:normal;inline-size:0;isolation:auto;mix-blend-mode:normal;shape-margin:0;shape-padding:0;text-decoration-color:#000000;text-decoration-line:none;text-decoration-style:solid;text-indent:0;text-orientation:mixed;text-transform:none;white-space:normal"/>
  <path d="m1.0583 11.906v0.59234c0 1.9386 1.5729 3.4993 3.3318 3.4993h8.1603c1.7589 0 3.3243-1.5608 3.3243-3.4993v-0.58095c-0.0056 2.0952-1.5372 3.7801-3.4395 3.7801h-7.9368c-1.9058 0-3.44-1.691-3.44-3.7915z" color="#000000" color-rendering="auto" dominant-baseline="auto" image-rendering="auto" opacity=".05" solid-color="#000000" stop-color="#000000" style="font-feature-settings:normal;font-variant-alternates:normal;font-variant-caps:normal;font-variant-east-asian:normal;font-variant-ligatures:normal;font-variant-numeric:normal;font-variant-position:normal;font-variation-settings:normal;inline-size:0;isolation:auto;mix-blend-mode:normal;shape-margin:0;shape-padding:0;text-decoration-color:#000000;text-decoration-line:none;text-decoration-style:solid;text-indent:0;text-orientation:mixed;text-transform:none;white-space:normal"/>
 </g>
 <rect x="1.0583" y="1.0583" width="14.816" height="14.816" rx="3.44" ry="3.44" fill="url(#linearGradient899)" stroke-width=".99997"/>
 <path d="m6.7935 3.1343 0.98028 1.3069 0.65576 0.87383 0.010335 10.561h0.64078v-10.564l0.65369-0.87125 0.97977-1.3069h-1.96zm-0.35036 2.9403v0.65369h0.98028v-0.65369zm3.9325 0.65421c-0.16043 0.00973-0.33319 0.16832-0.33279 0.34416l-0.0057 5.1918c0 0.23447 0.30665 0.43849 0.48213 0.2992l3.3062-2.605c0.17663-0.13757 0.17622-0.46022 0-0.5984l-3.3-2.5869c-0.04405-0.034515-0.09636-0.04817-0.14986-0.044958zm-4.9128 0.65266v0.65369h1.9606v-0.65369zm-1.6335 1.3069v0.65369h3.594v-0.65369zm-1.3069 1.3074v0.65318h4.9009v-0.65318zm1.3069 1.3069v0.65318h3.594v-0.65318zm1.6335 1.3069v0.65318h1.9606v-0.65318z" fill="#17191e" filter="url(#filter1124)"/>
 <g transform="matrix(.32673 0 0 .32673 .56223 .76907)">
  <path d="m24.073 5 0.03906 38h1.9609v-38z" fill="#e05e4c"/>
  <path d="m18 13v2h3v-2zm-3 4v2h6v-2zm-5 4v2h11v-2zm-4 4v2h15v-2zm4 4v2h11v-2zm5 4v2h6v-2z" color="#000000" color-rendering="auto" fill="url(#linearGradient4241)" fill-rule="evenodd" image-rendering="auto" shape-rendering="auto" solid-color="#000000" style="isolation:auto;mix-blend-mode:normal;text-decoration-color:#000000;text-decoration-line:none;text-decoration-style:solid;text-indent:0;text-transform:none;white-space:normal"/>
  <path d="m31.073 4h-12l6 8 3-4z" fill="url(#linearGradient4222)"/>
  <path d="m30.037 15.001c-0.49102 0.02978-1.0197 0.51549-1.0185 1.0537l-0.01836 15.89c0 0.71765 0.93888 1.3421 1.476 0.91578l10.119-7.9722c0.5406-0.42106 0.53936-1.4088 0-1.8317l-10.1-7.9177c-0.13483-0.10564-0.2938-0.14773-0.45755-0.1379z" fill="url(#linearGradient4230)"/>
 </g>
</svg>
